<?xml version="1.0" encoding="UTF-8"?><svg xmlns="http://www.w3.org/2000/svg" xmlns:xlink="http://www.w3.org/1999/xlink" viewBox="0 0 1200 800"><defs><style>.e{fill:#8eb1c7;}.f{fill:#c42021;}.g{clip-path:url(#d);}.h{fill:none;}.i{fill:#fd7932;}.j{fill:#ff0;}</style><clipPath id="d"><rect class="h" width="1200" height="800"/></clipPath></defs><g id="a"/><g id="b"><g id="c"><g class="g"><g><path class="f" d="M863.87-50.95c20.72,0,41.44,0,62.16,0-1.15,162.15-39.36,321.77-117.67,464.19-111.22,202.26-296.07,359.86-512.09,440.47-252.86,94.35-531.52,74.92-772.16-45.55,4.47-8.78,8.94-17.55,13.41-26.33,4.94-9.69,9.87-19.37,14.81-29.06,219.33,109.55,472.06,130.27,704.38,49.11,218.55-76.35,404.16-236.22,509.73-442.48,65.11-127.2,96.29-267.81,97.43-410.34Z"/><path class="i" d="M926.03-50.95c20.72,0,41.44,0,62.16,0-1.17,174.74-43,346.8-128.37,499.73-118.36,212.03-312.99,377.31-540.09,462.55-269.54,101.17-567.16,80.83-823.84-47.8,9.41-18.46,18.81-36.92,28.22-55.38,240.65,120.47,519.31,139.9,772.16,45.55,216.02-80.6,400.87-238.21,512.09-440.47,78.31-142.42,116.52-302.04,117.67-464.19Z"/><path class="j" d="M988.18-50.95c20.72,0,41.44,0,62.16,0-1.15,182.85-44.4,363.05-132.64,523.66-125.51,228.45-334.2,406.5-578.13,497.57-285.35,106.53-600.36,84.85-871.9-51.36,9.41-18.46,18.81-36.92,28.22-55.38,256.68,128.63,554.3,148.96,823.84,47.8,227.11-85.24,421.73-250.52,540.09-462.55,85.37-152.93,127.2-324.98,128.37-499.73Z"/><path class="e" d="M1050.34-50.95c20.72,0,41.44,0,62.16,0-1.17,195.45-48.04,388.08-143.33,559.2-132.69,238.3-351.12,423.82-606.15,519.65-301.93,113.46-636.09,90.73-923.57-53.6,9.41-18.46,18.81-36.92,28.22-55.38,271.54,136.21,586.55,157.89,871.9,51.36,243.93-91.07,452.63-269.11,578.13-497.57,88.23-160.61,131.49-340.81,132.64-523.66Z"/></g></g></g></g></svg>